<svg width="62" height="62" viewBox="0 0 62 62" fill="none" xmlns="http://www.w3.org/2000/svg">
<path d="M30.8 0C13.8062 0 0 13.8062 0 30.8C0 46.2268 11.3785 58.9937 26.198 61.2199L27.8059 61.4633V37.193H20.5297V32.2656H27.8059V25.7223C27.8059 21.693 28.7728 19.0392 30.3734 17.3742C31.9741 15.7093 34.3392 14.8695 37.6305 14.8695C40.2622 14.8695 41.286 15.029 42.2598 15.1484V19.1816H38.8336C36.8896 19.1816 35.2946 20.2663 34.4668 21.7109C33.639 23.1556 33.3812 24.8805 33.3812 26.6383V32.2629H41.9535L41.1906 37.1902H33.3812V61.5016L34.9699 61.2855C50.0001 59.2471 61.6 46.3776 61.6 30.8C61.6 13.8062 47.7938 0 30.8 0ZM30.8 2.8C46.2806 2.8 58.8 15.3194 58.8 30.8C58.8 44.4217 49.0501 55.6245 36.1812 58.1465V39.9902H43.5914L45.2184 29.4629H36.1812V26.6383C36.1812 25.1858 36.447 23.8844 36.8949 23.1027C37.3428 22.3211 37.7746 21.9816 38.8336 21.9816H45.0598V12.6137L43.8457 12.4496C43.006 12.336 41.0889 12.0695 37.6305 12.0695C33.8461 12.0695 30.5978 13.1004 28.3555 15.4328C26.1131 17.7652 25.0059 21.2382 25.0059 25.7223V29.4656H17.7297V39.993H25.0059V58.059C12.3438 55.3767 2.8 44.2742 2.8 30.8C2.8 15.3194 15.3194 2.8 30.8 2.8Z" fill="#FFF7DB"/>
</svg>
