<svg width="62" height="62" viewBox="0 0 62 62" fill="none" xmlns="http://www.w3.org/2000/svg">
<path d="M18.2 0C8.16548 0 0 8.16548 0 18.2V43.4C0 53.4345 8.16548 61.6 18.2 61.6H43.4C53.4345 61.6 61.6 53.4345 61.6 43.4V18.2C61.6 8.16548 53.4345 0 43.4 0H18.2ZM18.2 2.8H43.4C51.9211 2.8 58.8 9.67892 58.8 18.2V43.4C58.8 51.9211 51.9211 58.8 43.4 58.8H18.2C9.67892 58.8 2.8 51.9211 2.8 43.4V18.2C2.8 9.67892 9.67892 2.8 18.2 2.8ZM47.6 11.2C46.8574 11.2 46.1452 11.495 45.6201 12.0201C45.095 12.5452 44.8 13.2574 44.8 14C44.8 14.7426 45.095 15.4548 45.6201 15.9799C46.1452 16.505 46.8574 16.8 47.6 16.8C48.3426 16.8 49.0548 16.505 49.5799 15.9799C50.105 15.4548 50.4 14.7426 50.4 14C50.4 13.2574 50.105 12.5452 49.5799 12.0201C49.0548 11.495 48.3426 11.2 47.6 11.2ZM30.8 15.4C22.3114 15.4 15.4 22.3114 15.4 30.8C15.4 39.2886 22.3114 46.2 30.8 46.2C39.2886 46.2 46.2 39.2886 46.2 30.8C46.2 22.3114 39.2886 15.4 30.8 15.4ZM30.8 18.2C37.7754 18.2 43.4 23.8246 43.4 30.8C43.4 37.7754 37.7754 43.4 30.8 43.4C23.8246 43.4 18.2 37.7754 18.2 30.8C18.2 23.8246 23.8246 18.2 30.8 18.2Z" fill="#FFF7DB"/>
</svg>
