<svg width="62" height="62" viewBox="0 0 62 62" fill="none" xmlns="http://www.w3.org/2000/svg">
<path d="M14.6667 0C6.58338 0 0 6.57269 0 14.6429V46.8571C0 54.9273 6.58338 61.5 14.6667 61.5H46.9333C55.0166 61.5 61.6 54.9273 61.6 46.8571V14.6429C61.6 6.57269 55.0166 0 46.9333 0H14.6667ZM14.6667 2.92857H46.9333C53.4316 2.92857 58.6667 8.1551 58.6667 14.6429V46.8571C58.6667 53.3449 53.4316 58.5714 46.9333 58.5714H14.6667C8.16836 58.5714 2.93333 53.3449 2.93333 46.8571V14.6429C2.93333 8.1551 8.16836 2.92857 14.6667 2.92857ZM13.2 16.1071C10.7874 16.1071 8.8 18.0913 8.8 20.5V41C8.8 43.4087 10.7874 45.3929 13.2 45.3929H48.4C50.8126 45.3929 52.8 43.4087 52.8 41V20.5C52.8 18.0913 50.8126 16.1071 48.4 16.1071H13.2ZM13.8073 19.0357H47.7898L34.7273 32.057C32.5379 34.2394 29.0354 34.2391 26.8469 32.0541L13.8073 19.0357ZM49.8667 21.1034V40.3966L40.1901 30.75L49.8667 21.1034ZM11.7333 21.1063L21.3927 30.75L11.7333 40.3937V21.1063ZM38.1161 32.8177L47.7927 42.4643H13.8073L23.4667 32.8206L24.7729 34.1247C28.0815 37.4279 33.4879 37.4304 36.7984 34.1304L38.1161 32.8177Z" fill="#FFF7DB"/>
</svg>
