<svg width="42" height="42" viewBox="0 0 42 42" fill="none" xmlns="http://www.w3.org/2000/svg">
<path d="M10 0C4.48867 0 0 4.48867 0 10V32C0 37.5113 4.48867 42 10 42H32C37.5113 42 42 37.5113 42 32V10C42 4.48867 37.5113 0 32 0H10ZM10 2H32C36.4307 2 40 5.56933 40 10V32C40 36.4307 36.4307 40 32 40H10C5.56933 40 2 36.4307 2 32V10C2 5.56933 5.56933 2 10 2ZM14.0488 7.04492C12.0035 6.95654 10.4511 7.73369 9.47461 8.66797C8.98635 9.13511 8.63383 9.63494 8.39258 10.1016C8.15132 10.5682 7.99805 10.9529 7.99805 11.4531C7.99805 11.4086 7.98706 11.6424 7.98047 11.9141C7.97387 12.1857 7.97507 12.5518 8 12.9941C8.04996 13.8788 8.1999 15.0754 8.59766 16.4941C9.39317 19.3315 11.1844 23.0536 15.0703 26.9395C18.9562 30.8253 22.678 32.6163 25.5156 33.4121C26.9344 33.81 28.1309 33.9597 29.0156 34.0098C29.458 34.0348 29.8221 34.0359 30.0938 34.0293C30.3654 34.0227 30.601 34.0117 30.5566 34.0117C31.0569 34.0117 31.4416 33.8584 31.9082 33.6172C32.3748 33.3759 32.8747 33.0234 33.3418 32.5352C34.2761 31.5586 35.0532 30.0063 34.9648 27.9609C34.9229 26.9855 34.3813 26.1216 33.582 25.6094C32.9644 25.2136 32.0055 24.5992 30.7539 23.7988C29.3018 22.8711 27.4445 22.8048 25.9297 23.6348L26.0156 23.5918L24.8379 24.0977L24.752 24.1582C24.4657 24.3592 24.1112 24.3964 23.7891 24.2617C22.8868 23.8844 21.481 23.1431 20.1738 21.8359C18.8667 20.5288 18.1254 19.123 17.748 18.2207C17.6133 17.8986 17.6506 17.5441 17.8516 17.2578L17.9121 17.1719L18.418 15.9941L18.375 16.0801C19.2048 14.5656 19.1402 12.7084 18.2109 11.2559C17.4106 10.0043 16.7962 9.04542 16.4004 8.42773C15.8881 7.62845 15.0243 7.08686 14.0488 7.04492ZM13.9629 9.04297C14.2434 9.05503 14.533 9.21914 14.7168 9.50586C15.113 10.1242 15.7277 11.0835 16.5273 12.334C17.058 13.1635 17.0953 14.2536 16.6211 15.1191L16.5977 15.1621L16.1152 16.2891L16.2148 16.1074C15.6238 16.9492 15.5051 18.0423 15.9023 18.9922C16.353 20.0699 17.2149 21.7052 18.7598 23.25C20.3046 24.7948 21.9398 25.6567 23.0176 26.1074C23.9675 26.5047 25.0606 26.3859 25.9023 25.7949L25.7207 25.8945L26.8477 25.4121L26.8906 25.3887C27.7558 24.9146 28.8459 24.9541 29.6758 25.4844V25.4824C30.9262 26.2821 31.8856 26.8968 32.5039 27.293C32.7906 27.4767 32.9547 27.7664 32.9668 28.0469C33.0324 29.5656 32.505 30.5164 31.8965 31.1523C31.5923 31.4703 31.2623 31.7011 30.9902 31.8418C30.7181 31.9825 30.4579 32.0117 30.5566 32.0117C30.3732 32.0117 30.2766 32.0237 30.0469 32.0293C29.8171 32.0349 29.5091 32.0352 29.1289 32.0137C28.3684 31.9706 27.3188 31.8408 26.0547 31.4863C23.5265 30.7773 20.1375 29.1785 16.4844 25.5254C12.8312 21.8723 11.2322 18.4829 10.5234 15.9551C10.1691 14.6912 10.039 13.6412 9.99609 12.8809C9.97462 12.5007 9.9749 12.1926 9.98047 11.9629C9.98607 11.7332 9.99805 11.6367 9.99805 11.4531C9.99805 11.5519 10.0273 11.2916 10.168 11.0195C10.3087 10.7474 10.5394 10.4175 10.8574 10.1133C11.4934 9.50481 12.4442 8.97735 13.9629 9.04297Z" fill="#FFF7DB"/>
</svg>
