<svg width="62" height="53" viewBox="0 0 62 53" fill="none" xmlns="http://www.w3.org/2000/svg">
<path d="M54.213 4.375C56.6732 4.375 57.3207 6.23583 56.593 10.605C55.7603 15.6013 53.3613 32.1431 51.448 42.4404C50.7159 46.3808 49.3961 48.0798 47.4755 48.0798C46.4196 48.0798 45.183 47.5665 43.7625 46.6288C41.8375 45.3571 32.1192 38.9302 30.009 37.4208C28.084 36.0456 25.4284 34.3904 28.7592 31.1325C29.9448 29.9717 37.7134 22.5531 43.7655 16.7796C44.4115 16.1627 43.8705 15.2221 43.153 15.2221C42.9896 15.2221 42.8161 15.2717 42.6469 15.384C34.489 20.7944 23.1767 28.3033 21.7373 29.2819C20.298 30.259 18.895 30.886 17.0255 30.886C16.0703 30.886 14.9925 30.7227 13.7253 30.3581C10.8917 29.5444 8.12525 28.5746 7.04754 28.2042C2.89859 26.7808 3.88296 24.936 7.91234 23.1627C24.0678 16.0563 44.973 7.39083 47.859 6.19208C50.6707 5.02396 52.759 4.375 54.213 4.375ZM54.213 0C52.218 0 49.8161 0.643125 46.1834 2.14958L45.7473 2.33042C30.238 8.77042 16.1753 14.7467 6.15067 19.1567C4.58442 19.8465 -0.179956 21.9421 0.00525236 26.3258C0.0840024 28.2173 1.12525 30.7956 5.62859 32.34L5.96109 32.4538C7.21817 32.8869 9.83588 33.7896 12.5192 34.561C14.1525 35.0306 15.6284 35.2581 17.0269 35.2581C19.4536 35.2581 21.3334 34.5654 22.8034 33.759C22.7961 34.004 22.8019 34.2504 22.8209 34.4983C23.0863 37.87 25.6938 39.7192 27.2513 40.8246L27.4686 40.9792C29.7684 42.6242 40.1765 49.5002 41.3548 50.2775C43.573 51.7417 45.5753 52.4519 47.4784 52.4519C50.4709 52.4519 54.3369 50.8535 55.7515 43.2381C57.0946 36.015 58.6463 25.9248 59.7794 18.5573C60.2621 15.4131 60.6588 12.8348 60.9111 11.3225C61.4201 8.26875 61.6534 4.80958 59.5286 2.30271C58.6361 1.25271 56.9911 0 54.213 0Z" fill="#FFF7DB"/>
</svg>
